Cantarell-Bold_20180626.ufo
<glyph name="dieresistonos" format="2">
	<unicode hex="0385"/>
	<advance width="631"/>
	<outline>
		<contour>
			<point x="340" y="553" type="line"/>
			<point x="404" y="739" type="line"/>
			<point x="251" y="739" type="line"/>
			<point x="236" y="553" type="line"/>
		</contour>
		<contour>
			<point x="127" y="548" type="curve" smooth="yes"/>
			<point x="181" y="548"/>
			<point x="216" y="585"/>
			<point x="216" y="638" type="curve" smooth="yes"/>
			<point x="216" y="692"/>
			<point x="181" y="729"/>
			<point x="127" y="729" type="curve" smooth="yes"/>
			<point x="73" y="729"/>
			<point x="38" y="692"/>
			<point x="38" y="638" type="curve" smooth="yes"/>
			<point x="38" y="585"/>
			<point x="73" y="548"/>
		</contour>
		<contour>
			<point x="490" y="548" type="curve" smooth="yes"/>
			<point x="544" y="548"/>
			<point x="579" y="585"/>
			<point x="579" y="638" type="curve" smooth="yes"/>
			<point x="579" y="692"/>
			<point x="544" y="729"/>
			<point x="490" y="729" type="curve" smooth="yes"/>
			<point x="436" y="729"/>
			<point x="401" y="692"/>
			<point x="401" y="638" type="curve" smooth="yes"/>
			<point x="401" y="585"/>
			<point x="436" y="548"/>
		</contour>
	</outline>
	<anchor name="_top" x="288" y="490"/>
</glyph>
<glyph name="Delta" format="2">
	<unicode hex="0394"/>
	<advance width="660"/>
	<outline>
		<contour>
			<point x="16" y="0" type="line"/>
			<point x="161" y="0" type="line"/>
			<point x="345" y="620" type="line"/>
			<point x="297" y="620" type="line"/>
			<point x="490" y="0" type="line"/>
			<point x="643" y="0" type="line"/>
			<point x="643" y="111" type="line"/>
			<point x="444" y="694" type="line"/>
			<point x="223" y="694" type="line"/>
			<point x="16" y="111" type="line"/>
		</contour>
		<contour>
			<point x="131" y="0" type="line"/>
			<point x="520" y="0" type="line"/>
			<point x="520" y="152" type="line"/>
			<point x="131" y="152" type="line"/>
		</contour>
	</outline>
	<anchor name="bottom" x="328" y="0"/>
	<anchor name="top" x="328" y="694"/>
</glyph>
<glyph name="Xi" format="2">
	<unicode hex="039E"/>
	<advance width="574"/>
	<outline>
		<contour>
			<point x="36" y="0" type="line"/>
			<point x="529" y="0" type="line"/>
			<point x="529" y="152" type="line"/>
			<point x="36" y="152" type="line"/>
		</contour>
		<contour>
			<point x="86" y="276" type="line"/>
			<point x="475" y="276" type="line"/>
			<point x="475" y="428" type="line"/>
			<point x="86" y="428" type="line"/>
		</contour>
		<contour>
			<point x="36" y="542" type="line"/>
			<point x="529" y="542" type="line"/>
			<point x="529" y="694" type="line"/>
			<point x="36" y="694" type="line"/>
		</contour>
	</outline>
</glyph>
<glyph name="Sigma" format="2">
	<unicode hex="03A3"/>
	<advance width="589"/>
	<outline>
		<contour>
			<point x="432" y="356" type="line"/>
			<point x="162" y="40" type="line"/>
			<point x="94" y="152" type="line"/>
			<point x="564" y="152" type="line"/>
			<point x="564" y="0" type="line"/>
			<point x="22" y="0" type="line"/>
			<point x="22" y="111" type="line"/>
			<point x="272" y="401" type="line"/>
			<point x="272" y="303" type="line"/>
			<point x="27" y="583" type="line"/>
			<point x="27" y="694" type="line"/>
			<point x="552" y="694" type="line"/>
			<point x="552" y="542" type="line"/>
			<point x="99" y="542" type="line"/>
			<point x="179" y="646" type="line"/>
		</contour>
	</outline>
</glyph>
<glyph name="alpha" format="2">
	<unicode hex="03B1"/>
	<advance width="599"/>
	<outline>
		<contour>
			<point x="271" y="131" type="curve" smooth="yes"/>
			<point x="222" y="131"/>
			<point x="198" y="176"/>
			<point x="198" y="254" type="curve" smooth="yes"/>
			<point x="198" y="320"/>
			<point x="219" y="362"/>
			<point x="260" y="362" type="curve" smooth="yes"/>
			<point x="297" y="362"/>
			<point x="311" y="321"/>
			<point x="331" y="242" type="curve" smooth="yes"/>
			<point x="354" y="149" type="line" smooth="yes"/>
			<point x="378" y="52"/>
			<point x="410" y="-8"/>
			<point x="498" y="-8" type="curve" smooth="yes"/>
			<point x="538" y="-8"/>
			<point x="573" y="2"/>
			<point x="606" y="15" type="curve"/>
			<point x="572" y="129" type="line"/>
			<point x="563" y="125"/>
			<point x="546" y="121"/>
			<point x="534" y="121" type="curve" smooth="yes"/>
			<point x="513" y="121"/>
			<point x="489" y="131"/>
			<point x="472" y="191" type="curve" smooth="yes"/>
			<point x="441" y="303" type="line" smooth="yes"/>
			<point x="404" y="436"/>
			<point x="354" y="500"/>
			<point x="244" y="500" type="curve" smooth="yes"/>
			<point x="110" y="500"/>
			<point x="21" y="401"/>
			<point x="21" y="236" type="curve" smooth="yes"/>
			<point x="21" y="70"/>
			<point x="107" y="-10"/>
			<point x="218" y="-10" type="curve" smooth="yes"/>
			<point x="330" y="-10"/>
			<point x="409" y="81"/>
			<point x="442" y="192" type="curve"/>
			<point x="370" y="224" type="line"/>
			<point x="352" y="177"/>
			<point x="317" y="131"/>
		</contour>
		<contour>
			<point x="476" y="178" type="line"/>
			<point x="592" y="490" type="line"/>
			<point x="438" y="490" type="line"/>
			<point x="390" y="216" type="line"/>
		</contour>
	</outline>
	<anchor name="top" x="260" y="490"/>
</glyph>
<glyph name="beta" format="2">
	<unicode hex="03B2"/>
	<advance width="641"/>
	<outline>
		<contour>
			<point x="363" y="135" type="curve" smooth="yes"/>
			<point x="303" y="135"/>
			<point x="248" y="176"/>
			<point x="219" y="216" type="curve"/>
			<point x="180" y="108" type="line"/>
			<point x="233" y="36"/>
			<point x="301" y="-10"/>
			<point x="401" y="-10" type="curve" smooth="yes"/>
			<point x="534" y="-10"/>
			<point x="624" y="73"/>
			<point x="624" y="204" type="curve" smooth="yes"/>
			<point x="624" y="327"/>
			<point x="548" y="397"/>
			<point x="431" y="397" type="curve"/>
			<point x="431" y="388" type="line"/>
			<point x="534" y="404"/>
			<point x="585" y="476"/>
			<point x="586" y="568" type="curve" smooth="yes"/>
			<point x="587" y="673"/>
			<point x="491" y="749"/>
			<point x="342" y="749" type="curve" smooth="yes"/>
			<point x="171" y="749"/>
			<point x="62" y="655"/>
			<point x="62" y="475" type="curve" smooth="yes"/>
			<point x="62" y="-217" type="line"/>
			<point x="235" y="-217" type="line"/>
			<point x="235" y="479" type="line" smooth="yes"/>
			<point x="235" y="576"/>
			<point x="281" y="605"/>
			<point x="338" y="605" type="curve" smooth="yes"/>
			<point x="385" y="605"/>
			<point x="412" y="577"/>
			<point x="412" y="535" type="curve" smooth="yes"/>
			<point x="412" y="485"/>
			<point x="381" y="457"/>
			<point x="327" y="457" type="curve" smooth="yes"/>
			<point x="304" y="457" type="line"/>
			<point x="304" y="322" type="line"/>
			<point x="338" y="322" type="line" smooth="yes"/>
			<point x="413" y="322"/>
			<point x="448" y="275"/>
			<point x="448" y="224" type="curve" smooth="yes"/>
			<point x="448" y="164"/>
			<point x="412" y="135"/>
		</contour>
	</outline>
</glyph>
<glyph name="gamma" format="2">
	<unicode hex="03B3"/>
	<advance width="535"/>
	<outline>
		<contour>
			<point x="182" y="-8" type="line"/>
			<point x="-8" y="490" type="line"/>
			<point x="182" y="490" type="line"/>
			<point x="281" y="116" type="line"/>
			<point x="258" y="116" type="line"/>
			<point x="271" y="144" type="line" smooth="yes"/>
			<point x="327" y="264"/>
			<point x="358" y="380"/>
			<point x="359" y="490" type="curve"/>
			<point x="532" y="490" type="line"/>
			<point x="530" y="373"/>
			<point x="479" y="250"/>
			<point x="401" y="108" type="curve" smooth="yes"/>
			<point x="337" y="-8" type="line"/>
		</contour>
		<contour>
			<point x="182" y="-8" type="line"/>
			<point x="182" y="-217" type="line"/>
			<point x="363" y="-217" type="line"/>
			<point x="337" y="-8" type="line"/>
		</contour>
	</outline>
</glyph>
<glyph name="zeta" format="2">
	<unicode hex="03B6"/>
	<advance width="465"/>
	<outline>
		<contour>
			<point x="192" y="252" type="curve" smooth="yes"/>
			<point x="192" y="198"/>
			<point x="237" y="164"/>
			<point x="315" y="134" type="curve" smooth="yes"/>
			<point x="426" y="91"/>
			<point x="465" y="32"/>
			<point x="465" y="-47" type="curve" smooth="yes"/>
			<point x="465" y="-110"/>
			<point x="412" y="-186"/>
			<point x="354" y="-232" type="curve"/>
			<point x="271" y="-167" type="line"/>
			<point x="300" y="-131"/>
			<point x="316" y="-105"/>
			<point x="316" y="-84" type="curve" smooth="yes"/>
			<point x="316" y="-50"/>
			<point x="289" y="-16"/>
			<point x="207" y="14" type="curve" smooth="yes"/>
			<point x="90" y="57"/>
			<point x="13" y="106"/>
			<point x="13" y="227" type="curve" smooth="yes"/>
			<point x="13" y="344"/>
			<point x="92" y="442"/>
			<point x="178" y="532" type="curve" smooth="yes"/>
			<point x="328" y="690" type="line"/>
			<point x="312" y="607" type="line"/>
			<point x="14" y="591" type="line"/>
			<point x="14" y="739" type="line"/>
			<point x="450" y="739" type="line"/>
			<point x="450" y="636" type="line"/>
			<point x="319" y="477" type="line" smooth="yes"/>
			<point x="247" y="390"/>
			<point x="192" y="318"/>
		</contour>
	</outline>
</glyph>
<glyph name="theta" format="2">
	<unicode hex="03B8"/>
	<advance width="611"/>
	<outline>
		<contour>
			<point x="302" y="-10" type="curve" smooth="yes"/>
			<point x="461" y="-10"/>
			<point x="578" y="104"/>
			<point x="578" y="375" type="curve" smooth="yes"/>
			<point x="578" y="638"/>
			<point x="464" y="749"/>
			<point x="308" y="749" type="curve" smooth="yes"/>
			<point x="149" y="749"/>
			<point x="33" y="637"/>
			<point x="33" y="366" type="curve" smooth="yes"/>
			<point x="33" y="103"/>
			<point x="146" y="-10"/>
		</contour>
		<contour>
			<point x="308" y="134" type="curve" smooth="yes"/>
			<point x="239" y="134"/>
			<point x="207" y="210"/>
			<point x="207" y="374" type="curve" smooth="yes"/>
			<point x="207" y="535"/>
			<point x="237" y="605"/>
			<point x="302" y="605" type="curve" smooth="yes"/>
			<point x="371" y="605"/>
			<point x="404" y="529"/>
			<point x="404" y="366" type="curve" smooth="yes"/>
			<point x="404" y="206"/>
			<point x="373" y="134"/>
		</contour>
		<contour>
			<point x="103" y="308" type="line"/>
			<point x="508" y="308" type="line"/>
			<point x="508" y="443" type="line"/>
			<point x="103" y="443" type="line"/>
		</contour>
	</outline>
</glyph>
<glyph name="iota" format="2">
	<unicode hex="03B9"/>
	<advance width="310"/>
	<outline>
		<contour>
			<point x="208" y="-8" type="curve" smooth="yes"/>
			<point x="245" y="-8"/>
			<point x="284" y="-1"/>
			<point x="317" y="11" type="curve"/>
			<point x="283" y="125" type="line"/>
			<point x="273" y="122"/>
			<point x="262" y="121"/>
			<point x="256" y="121" type="curve" smooth="yes"/>
			<point x="230" y="121"/>
			<point x="216" y="137"/>
			<point x="216" y="168" type="curve" smooth="yes"/>
			<point x="216" y="490" type="line"/>
			<point x="46" y="490" type="line"/>
			<point x="46" y="147" type="line" smooth="yes"/>
			<point x="46" y="48"/>
			<point x="105" y="-8"/>
		</contour>
	</outline>
	<anchor name="bottom" x="168" y="0"/>
	<anchor name="top" x="127" y="490"/>
	<anchor name="topright" x="300" y="490"/>
</glyph>
<glyph name="kappa" format="2">
	<unicode hex="03BA"/>
	<advance width="559"/>
	<outline>
		<contour>
			<point x="54" y="0" type="line"/>
			<point x="227" y="0" type="line"/>
			<point x="227" y="482" type="line"/>
			<point x="54" y="482" type="line"/>
		</contour>
		<contour>
			<point x="350" y="319" type="line"/>
			<point x="245" y="195" type="line"/>
			<point x="362" y="0" type="line"/>
			<point x="563" y="0" type="line"/>
		</contour>
		<contour>
			<point x="275" y="365" type="curve" smooth="yes"/>
			<point x="206" y="268" type="line"/>
			<point x="206" y="75" type="line"/>
			<point x="352" y="252" type="line" smooth="yes"/>
			<point x="409" y="321"/>
			<point x="440" y="343"/>
			<point x="484" y="343" type="curve" smooth="yes"/>
			<point x="498" y="343"/>
			<point x="517" y="340"/>
			<point x="529" y="337" type="curve"/>
			<point x="560" y="483" type="line"/>
			<point x="538" y="493"/>
			<point x="510" y="498"/>
			<point x="487" y="498" type="curve" smooth="yes"/>
			<point x="424" y="498"/>
			<point x="357" y="480"/>
		</contour>
	</outline>
</glyph>
<glyph name="lambda" format="2">
	<unicode hex="03BB"/>
	<advance width="600"/>
	<outline>
		<contour>
			<point x="209" y="549" type="line" smooth="yes"/>
			<point x="190" y="602"/>
			<point x="162" y="607"/>
			<point x="130" y="607" type="curve" smooth="yes"/>
			<point x="107" y="607"/>
			<point x="73" y="599"/>
			<point x="51" y="589" type="curve"/>
			<point x="17" y="708" type="line"/>
			<point x="56" y="732"/>
			<point x="118" y="749"/>
			<point x="159" y="749" type="curve" smooth="yes"/>
			<point x="245" y="749"/>
			<point x="302" y="711"/>
			<point x="346" y="597" type="curve" smooth="yes"/>
			<point x="575" y="0" type="line"/>
			<point x="389" y="0" type="line"/>
			<point x="251" y="476" type="line"/>
			<point x="350" y="476" type="line"/>
			<point x="185" y="0" type="line"/>
			<point x="7" y="0" type="line"/>
			<point x="227" y="500" type="line"/>
		</contour>
	</outline>
</glyph>
<glyph name="mu" format="2">
	<unicode hex="03BC"/>
	<advance width="638"/>
	<outline>
		<contour>
			<point x="251" y="-217" type="line"/>
			<point x="220" y="25" type="line"/>
			<point x="243" y="25" type="line"/>
			<point x="243" y="490" type="line"/>
			<point x="70" y="490" type="line"/>
			<point x="70" y="-217" type="line" smooth="yes"/>
		</contour>
		<contour>
			<point x="134" y="490" type="move"/>
			<point x="54" y="490" type="line"/>
		</contour>
		<contour>
			<point x="533" y="-8" type="curve" smooth="yes"/>
			<point x="576" y="-8"/>
			<point x="612" y="1"/>
			<point x="645" y="13" type="curve"/>
			<point x="612" y="126" type="line"/>
			<point x="604" y="123"/>
			<point x="595" y="121"/>
			<point x="586" y="121" type="curve" smooth="yes"/>
			<point x="565" y="121"/>
			<point x="549" y="137"/>
			<point x="549" y="168" type="curve" smooth="yes"/>
			<point x="549" y="490" type="line"/>
			<point x="376" y="490" type="line"/>
			<point x="376" y="151" type="line" smooth="yes"/>
			<point x="376" y="52"/>
			<point x="438" y="-8"/>
		</contour>
		<contour>
			<point x="120" y="95" type="line"/>
			<point x="209" y="18"/>
			<point x="234" y="0"/>
			<point x="285" y="0" type="curve" smooth="yes"/>
			<point x="351" y="0"/>
			<point x="398" y="42"/>
			<point x="426" y="105" type="curve"/>
			<point x="393" y="182" type="line"/>
			<point x="368" y="155"/>
			<point x="335" y="146"/>
			<point x="313" y="146" type="curve" smooth="yes"/>
			<point x="278" y="146"/>
			<point x="235" y="163"/>
			<point x="163" y="242" type="curve"/>
		</contour>
	</outline>
	<anchor name="bottom" x="308" y="0"/>
	<anchor name="ogonek" x="502" y="10"/>
	<anchor name="top" x="308" y="490"/>
</glyph>
<glyph name="nu" format="2">
	<unicode hex="03BD"/>
	<advance width="535"/>
	<outline>
		<contour>
			<point x="180" y="0" type="line"/>
			<point x="-8" y="490" type="line"/>
			<point x="182" y="490" type="line"/>
			<point x="281" y="124" type="line"/>
			<point x="258" y="124" type="line"/>
			<point x="271" y="152" type="line" smooth="yes"/>
			<point x="327" y="272"/>
			<point x="358" y="380"/>
			<point x="359" y="490" type="curve"/>
			<point x="532" y="490" type="line"/>
			<point x="530" y="373"/>
			<point x="483" y="257"/>
			<point x="405" y="116" type="curve" smooth="yes"/>
			<point x="341" y="0" type="line"/>
		</contour>
	</outline>
</glyph>
<glyph name="xi" format="2">
	<unicode hex="03BE"/>
	<advance width="468"/>
	<outline>
		<contour>
			<point x="300" y="132" type="curve" smooth="yes"/>
			<point x="217" y="158"/>
			<point x="189" y="184"/>
			<point x="189" y="223" type="curve" smooth="yes"/>
			<point x="189" y="262"/>
			<point x="221" y="288"/>
			<point x="314" y="288" type="curve" smooth="yes"/>
			<point x="379" y="288" type="line"/>
			<point x="379" y="423" type="line"/>
			<point x="318" y="423" type="line" smooth="yes"/>
			<point x="246" y="423"/>
			<point x="221" y="444"/>
			<point x="221" y="475" type="curve" smooth="yes"/>
			<point x="221" y="514"/>
			<point x="281" y="558"/>
			<point x="368" y="597" type="curve" smooth="yes"/>
			<point x="457" y="637" type="line"/>
			<point x="457" y="739" type="line"/>
			<point x="27" y="739" type="line"/>
			<point x="27" y="591" type="line"/>
			<point x="300" y="613" type="line"/>
			<point x="286" y="624" type="line"/>
			<point x="154" y="599"/>
			<point x="53" y="547"/>
			<point x="53" y="465" type="curve" smooth="yes"/>
			<point x="53" y="397"/>
			<point x="107" y="355"/>
			<point x="207" y="355" type="curve"/>
			<point x="210" y="361" type="line"/>
			<point x="102" y="361"/>
			<point x="13" y="295"/>
			<point x="13" y="207" type="curve" smooth="yes"/>
			<point x="13" y="101"/>
			<point x="103" y="40"/>
			<point x="215" y="9" type="curve" smooth="yes"/>
			<point x="302" y="-15"/>
			<point x="319" y="-49"/>
			<point x="319" y="-81" type="curve" smooth="yes"/>
			<point x="319" y="-105"/>
			<point x="303" y="-131"/>
			<point x="274" y="-167" type="curve"/>
			<point x="357" y="-232" type="line"/>
			<point x="415" y="-186"/>
			<point x="468" y="-109"/>
			<point x="468" y="-46" type="curve" smooth="yes"/>
			<point x="468" y="33"/>
			<point x="420" y="94"/>
		</contour>
	</outline>
</glyph>
<glyph name="rho" format="2">
	<unicode hex="03C1"/>
	<advance width="563"/>
	<outline>
		<contour>
			<point x="44" y="234" type="curve" smooth="yes"/>
			<point x="44" y="-217" type="line"/>
			<point x="225" y="-217" type="line"/>
			<point x="211" y="31" type="line"/>
			<point x="217" y="31" type="line"/>
			<point x="217" y="241" type="line" smooth="yes"/>
			<point x="217" y="323"/>
			<point x="247" y="356"/>
			<point x="294" y="356" type="curve" smooth="yes"/>
			<point x="337" y="356"/>
			<point x="369" y="317"/>
			<point x="369" y="249" type="curve" smooth="yes"/>
			<point x="369" y="178"/>
			<point x="341" y="134"/>
			<point x="286" y="134" type="curve" smooth="yes"/>
			<point x="252" y="134"/>
			<point x="219" y="150"/>
			<point x="201" y="180" type="curve"/>
			<point x="162" y="86" type="line"/>
			<point x="195" y="24"/>
			<point x="251" y="-10"/>
			<point x="323" y="-10" type="curve" smooth="yes"/>
			<point x="452" y="-10"/>
			<point x="545" y="94"/>
			<point x="545" y="254" type="curve" smooth="yes"/>
			<point x="545" y="395"/>
			<point x="467" y="500"/>
			<point x="295" y="500" type="curve" smooth="yes"/>
			<point x="137" y="500"/>
			<point x="44" y="413"/>
		</contour>
	</outline>
	<anchor name="bottom" x="283" y="0"/>
	<anchor name="top" x="283" y="490"/>
</glyph>
<glyph name="sigma" format="2">
	<unicode hex="03C3"/>
	<advance width="598"/>
	<outline>
		<contour>
			<point x="323" y="356" type="curve" smooth="yes"/>
			<point x="419" y="356" type="line"/>
			<point x="593" y="350" type="line"/>
			<point x="593" y="490" type="line"/>
			<point x="315" y="490" type="line" smooth="yes"/>
			<point x="143" y="490"/>
			<point x="18" y="392"/>
			<point x="18" y="226" type="curve" smooth="yes"/>
			<point x="18" y="76"/>
			<point x="129" y="-10"/>
			<point x="274" y="-10" type="curve" smooth="yes"/>
			<point x="424" y="-10"/>
			<point x="543" y="71"/>
			<point x="543" y="213" type="curve" smooth="yes"/>
			<point x="543" y="320"/>
			<point x="464" y="400"/>
			<point x="357" y="476" type="curve"/>
			<point x="269" y="440" type="line"/>
			<point x="347" y="362"/>
			<point x="372" y="291"/>
			<point x="372" y="231" type="curve" smooth="yes"/>
			<point x="372" y="166"/>
			<point x="337" y="134"/>
			<point x="280" y="134" type="curve" smooth="yes"/>
			<point x="221" y="134"/>
			<point x="194" y="183"/>
			<point x="194" y="237" type="curve" smooth="yes"/>
			<point x="194" y="295"/>
			<point x="225" y="356"/>
		</contour>
	</outline>
</glyph>
<glyph name="tau" format="2">
	<unicode hex="03C4"/>
	<advance width="500"/>
	<outline>
		<contour>
			<point x="5" y="355" type="line"/>
			<point x="490" y="355" type="line"/>
			<point x="490" y="490" type="line"/>
			<point x="5" y="490" type="line"/>
		</contour>
		<contour>
			<point x="347" y="-8" type="curve" smooth="yes"/>
			<point x="392" y="-8"/>
			<point x="432" y="2"/>
			<point x="471" y="18" type="curve"/>
			<point x="438" y="136" type="line"/>
			<point x="423" y="129"/>
			<point x="404" y="123"/>
			<point x="385" y="123" type="curve" smooth="yes"/>
			<point x="348" y="123"/>
			<point x="324" y="145"/>
			<point x="324" y="181" type="curve" smooth="yes"/>
			<point x="324" y="490" type="line"/>
			<point x="154" y="490" type="line"/>
			<point x="154" y="176" type="line" smooth="yes"/>
			<point x="154" y="60"/>
			<point x="225" y="-8"/>
		</contour>
	</outline>
</glyph>
<glyph name="upsilon" format="2">
	<unicode hex="03C5"/>
	<advance width="562"/>
	<outline>
		<contour>
			<point x="289" y="137" type="curve" smooth="yes"/>
			<point x="237" y="137"/>
			<point x="217" y="169"/>
			<point x="217" y="229" type="curve" smooth="yes"/>
			<point x="217" y="490" type="line"/>
			<point x="44" y="490" type="line"/>
			<point x="44" y="207" type="line" smooth="yes"/>
			<point x="44" y="62"/>
			<point x="137" y="-10"/>
			<point x="285" y="-10" type="curve" smooth="yes"/>
			<point x="444" y="-10"/>
			<point x="544" y="83"/>
			<point x="544" y="241" type="curve" smooth="yes"/>
			<point x="544" y="333"/>
			<point x="520" y="417"/>
			<point x="496" y="490" type="curve"/>
			<point x="322" y="490" type="line"/>
			<point x="346" y="420"/>
			<point x="370" y="318"/>
			<point x="370" y="249" type="curve" smooth="yes"/>
			<point x="370" y="180"/>
			<point x="344" y="137"/>
		</contour>
	</outline>
	<anchor name="bottom" x="280" y="0"/>
	<anchor name="top" x="280" y="490"/>
</glyph>
<glyph name="phi" format="2">
	<unicode hex="03C6"/>
	<advance width="696"/>
	<outline>
		<contour>
			<point x="269" y="-8" type="curve"/>
			<point x="273" y="137" type="line"/>
			<point x="226" y="137"/>
			<point x="197" y="184"/>
			<point x="197" y="254" type="curve" smooth="yes"/>
			<point x="197" y="335"/>
			<point x="219" y="405"/>
			<point x="252" y="490" type="curve"/>
			<point x="77" y="490" type="line"/>
			<point x="44" y="403"/>
			<point x="23" y="339"/>
			<point x="23" y="246" type="curve" smooth="yes"/>
			<point x="23" y="104"/>
			<point x="116" y="-8"/>
		</contour>
		<contour>
			<point x="421" y="137" type="curve"/>
			<point x="415" y="-8" type="line"/>
			<point x="564" y="-8"/>
			<point x="676" y="100"/>
			<point x="676" y="265" type="curve" smooth="yes"/>
			<point x="676" y="412"/>
			<point x="601" y="500"/>
			<point x="470" y="500" type="curve" smooth="yes"/>
			<point x="323" y="500"/>
			<point x="258" y="401"/>
			<point x="258" y="235" type="curve" smooth="yes"/>
			<point x="258" y="-217" type="line"/>
			<point x="431" y="-217" type="line"/>
			<point x="431" y="246" type="line" smooth="yes"/>
			<point x="431" y="328"/>
			<point x="442" y="355"/>
			<point x="466" y="355" type="curve" smooth="yes"/>
			<point x="488" y="355"/>
			<point x="502" y="330"/>
			<point x="502" y="261" type="curve" smooth="yes"/>
			<point x="502" y="182"/>
			<point x="464" y="137"/>
		</contour>
	</outline>
</glyph>
<glyph name="chi" format="2">
	<unicode hex="03C7"/>
	<advance width="532"/>
	<outline>
		<contour>
			<point x="-24" y="490" type="line"/>
			<point x="222" y="64" type="line"/>
			<point x="368" y="-217" type="line"/>
			<point x="563" y="-217" type="line"/>
			<point x="317" y="211" type="line"/>
			<point x="172" y="490" type="line"/>
		</contour>
		<contour>
			<point x="351" y="111" type="line"/>
			<point x="559" y="490" type="line"/>
			<point x="374" y="490" type="line"/>
			<point x="234" y="183" type="line"/>
		</contour>
		<contour>
			<point x="193" y="157" type="line"/>
			<point x="-28" y="-217" type="line"/>
			<point x="152" y="-217" type="line"/>
			<point x="311" y="85" type="line"/>
		</contour>
	</outline>
</glyph>
<glyph name="psi" format="2">
	<unicode hex="03C8"/>
	<advance width="720"/>
	<outline>
		<contour>
			<point x="281" y="-217" type="line"/>
			<point x="454" y="-217" type="line"/>
			<point x="454" y="642" type="line"/>
			<point x="281" y="642" type="line"/>
		</contour>
		<contour>
			<point x="293" y="137" type="line"/>
			<point x="239" y="137"/>
			<point x="217" y="178"/>
			<point x="217" y="252" type="curve" smooth="yes"/>
			<point x="217" y="490" type="line"/>
			<point x="44" y="490" type="line"/>
			<point x="44" y="225" type="line" smooth="yes"/>
			<point x="44" y="73"/>
			<point x="147" y="-8"/>
			<point x="289" y="-8" type="curve"/>
		</contour>
		<contour>
			<point x="441" y="-8" type="line"/>
			<point x="603" y="-8"/>
			<point x="702" y="102"/>
			<point x="702" y="246" type="curve" smooth="yes"/>
			<point x="702" y="343"/>
			<point x="687" y="410"/>
			<point x="664" y="490" type="curve"/>
			<point x="492" y="490" type="line"/>
			<point x="512" y="410"/>
			<point x="528" y="338"/>
			<point x="528" y="259" type="curve" smooth="yes"/>
			<point x="528" y="178"/>
			<point x="497" y="137"/>
			<point x="447" y="137" type="curve"/>
		</contour>
	</outline>
</glyph>
<glyph name="omega" format="2">
	<unicode hex="03C9"/>
	<advance width="716"/>
	<outline>
		<contour>
			<point x="365" y="159" type="line"/>
			<point x="360" y="58"/>
			<point x="306" y="-10"/>
			<point x="199" y="-10" type="curve" smooth="yes"/>
			<point x="83" y="-10"/>
			<point x="23" y="92"/>
			<point x="23" y="225" type="curve" smooth="yes"/>
			<point x="23" y="320"/>
			<point x="45" y="403"/>
			<point x="76" y="490" type="curve"/>
			<point x="247" y="490" type="line"/>
			<point x="218" y="404"/>
			<point x="197" y="314"/>
			<point x="197" y="241" type="curve" smooth="yes"/>
			<point x="197" y="180"/>
			<point x="207" y="137"/>
			<point x="236" y="137" type="curve" smooth="yes"/>
			<point x="266" y="137"/>
			<point x="274" y="179"/>
			<point x="274" y="250" type="curve" smooth="yes"/>
			<point x="274" y="343" type="line"/>
			<point x="442" y="343" type="line"/>
			<point x="442" y="249" type="line" smooth="yes"/>
			<point x="442" y="178"/>
			<point x="449" y="137"/>
			<point x="479" y="137" type="curve" smooth="yes"/>
			<point x="510" y="137"/>
			<point x="519" y="179"/>
			<point x="519" y="241" type="curve" smooth="yes"/>
			<point x="519" y="314"/>
			<point x="500" y="404"/>
			<point x="472" y="490" type="curve"/>
			<point x="643" y="490" type="line"/>
			<point x="672" y="403"/>
			<point x="693" y="320"/>
			<point x="693" y="225" type="curve" smooth="yes"/>
			<point x="693" y="92"/>
			<point x="634" y="-10"/>
			<point x="501" y="-10" type="curve" smooth="yes"/>
			<point x="406" y="-10"/>
			<point x="355" y="61"/>
			<point x="350" y="154" type="curve"/>
		</contour>
	</outline>
	<anchor name="top" x="358" y="490"/>
</glyph>
<glyph name="Tse-cy" format="2">
	<unicode hex="0426"/>
	<advance width="779"/>
	<outline>
		<contour>
			<point x="607" y="-187" type="line"/>
			<point x="769" y="-187" type="line"/>
			<point x="769" y="151" type="line"/>
			<point x="238" y="151" type="line"/>
			<point x="238" y="694" type="line"/>
			<point x="67" y="694" type="line"/>
			<point x="67" y="0" type="line"/>
			<point x="607" y="0" type="line"/>
		</contour>
		<contour>
			<point x="485" y="72" type="line"/>
			<point x="656" y="72" type="line"/>
			<point x="656" y="694" type="line"/>
			<point x="485" y="694" type="line"/>
		</contour>
	</outline>
</glyph>
<glyph name="el-cy" format="2">
	<unicode hex="043B"/>
	<advance width="572"/>
	<outline>
		<contour>
			<point x="0" y="135" type="curve"/>
			<point x="24" y="-17" type="line"/>
			<point x="165" y="9"/>
			<point x="248" y="117"/>
			<point x="248" y="270" type="curve" smooth="yes"/>
			<point x="248" y="351" type="line"/>
			<point x="352" y="351" type="line"/>
			<point x="352" y="0" type="line"/>
			<point x="518" y="0" type="line"/>
			<point x="518" y="491" type="line"/>
			<point x="95" y="491" type="line"/>
			<point x="95" y="264" type="line" smooth="yes"/>
			<point x="95" y="197"/>
			<point x="57" y="146"/>
		</contour>
	</outline>
</glyph>
<glyph name="che-cy" format="2">
	<unicode hex="0447"/>
	<advance width="547"/>
	<outline>
		<contour>
			<point x="196" y="162" type="curve" smooth="yes"/>
			<point x="264" y="162"/>
			<point x="324" y="185"/>
			<point x="366" y="229" type="curve"/>
			<point x="344" y="331" type="line"/>
			<point x="322" y="318"/>
			<point x="285" y="310"/>
			<point x="258" y="310" type="curve" smooth="yes"/>
			<point x="217" y="310"/>
			<point x="184" y="329"/>
			<point x="184" y="354" type="curve" smooth="yes"/>
			<point x="184" y="490" type="line"/>
			<point x="19" y="490" type="line"/>
			<point x="19" y="315" type="line" smooth="yes"/>
			<point x="19" y="220"/>
			<point x="88" y="162"/>
		</contour>
		<contour>
			<point x="325" y="0" type="line"/>
			<point x="493" y="0" type="line"/>
			<point x="493" y="490" type="line"/>
			<point x="325" y="490" type="line"/>
		</contour>
	</outline>
	<anchor name="bottomright" x="429" y="0"/>
	<anchor name="top" x="274" y="490"/>
</glyph>
<glyph name="shcha-cy" format="2">
	<unicode hex="0449"/>
	<advance width="933"/>
	<outline>
		<contour>
			<point x="775" y="-135" type="line"/>
			<point x="931" y="-135" type="line"/>
			<point x="931" y="133" type="line"/>
			<point x="214" y="133" type="line"/>
			<point x="214" y="490" type="line"/>
			<point x="54" y="490" type="line"/>
			<point x="54" y="0" type="line"/>
			<point x="775" y="0" type="line"/>
		</contour>
		<contour>
			<point x="361" y="68" type="line"/>
			<point x="521" y="68" type="line"/>
			<point x="521" y="490" type="line"/>
			<point x="361" y="490" type="line"/>
		</contour>
		<contour>
			<point x="671" y="68" type="line"/>
			<point x="830" y="68" type="line"/>
			<point x="830" y="490" type="line"/>
			<point x="671" y="490" type="line"/>
		</contour>
	</outline>
</glyph>
<glyph name="Ghemiddlehook-cy" format="2">
	<unicode hex="0494"/>
	<advance width="678"/>
	<outline>
		<contour>
			<point x="408" y="-243" type="line"/>
			<point x="579" y="-197"/>
			<point x="660" y="-89"/>
			<point x="660" y="93" type="curve" smooth="yes"/>
			<point x="660" y="288"/>
			<point x="566" y="401"/>
			<point x="403" y="401" type="curve" smooth="yes"/>
			<point x="294" y="401"/>
			<point x="198" y="350"/>
			<point x="144" y="262" type="curve"/>
			<point x="168" y="159" type="line"/>
			<point x="202" y="214"/>
			<point x="271" y="251"/>
			<point x="341" y="251" type="curve" smooth="yes"/>
			<point x="434" y="251"/>
			<point x="486" y="182"/>
			<point x="486" y="60" type="curve" smooth="yes"/>
			<point x="486" y="-42"/>
			<point x="446" y="-111"/>
			<point x="367" y="-147" type="curve"/>
		</contour>
		<contour>
			<point x="67" y="0" type="line"/>
			<point x="237" y="0" type="line"/>
			<point x="237" y="542" type="line"/>
			<point x="542" y="542" type="line"/>
			<point x="542" y="694" type="line"/>
			<point x="67" y="694" type="line"/>
		</contour>
	</outline>
</glyph>
<glyph name="ghemiddlehook-cy" format="2">
	<unicode hex="0495"/>
	<advance width="545"/>
	<outline>
		<contour>
			<point x="54" y="0" type="line"/>
			<point x="214" y="0" type="line"/>
			<point x="214" y="355" type="line"/>
			<point x="423" y="355" type="line"/>
			<point x="423" y="490" type="line"/>
			<point x="54" y="490" type="line"/>
		</contour>
		<contour>
			<point x="122" y="169" type="curve"/>
			<point x="143" y="72" type="line"/>
			<point x="165" y="120"/>
			<point x="211" y="149"/>
			<point x="267" y="149" type="curve" smooth="yes"/>
			<point x="332" y="149"/>
			<point x="370" y="105"/>
			<point x="370" y="31" type="curve" smooth="yes"/>
			<point x="370" y="-44"/>
			<point x="338" y="-109"/>
			<point x="291" y="-131" type="curve"/>
			<point x="326" y="-227" type="line"/>
			<point x="454" y="-193"/>
			<point x="539" y="-82"/>
			<point x="539" y="49" type="curve" smooth="yes"/>
			<point x="539" y="200"/>
			<point x="458" y="290"/>
			<point x="320" y="290" type="curve" smooth="yes"/>
			<point x="232" y="290"/>
			<point x="161" y="246"/>
		</contour>
	</outline>
</glyph>
<glyph name="brevecomb-cy" format="2">
	<outline>
		<contour>
			<point x="223" y="547" type="curve" smooth="yes"/>
			<point x="346" y="547"/>
			<point x="427" y="608"/>
			<point x="442" y="711" type="curve"/>
			<point x="325" y="767" type="line"/>
			<point x="312" y="703"/>
			<point x="278" y="666"/>
			<point x="232" y="666" type="curve" smooth="yes"/>
			<point x="183" y="666"/>
			<point x="145" y="708"/>
			<point x="137" y="771" type="curve"/>
			<point x="18" y="705" type="line"/>
			<point x="33" y="606"/>
			<point x="109" y="547"/>
		</contour>
	</outline>
	<anchor name="_top" x="217" y="490"/>
	<anchor name="top" x="217" y="727"/>
</glyph>
<glyph name="descenderreversed-cy" format="2">
	<advance width="316"/>
	<outline>
		<contour>
			<point x="47" y="-136" type="line"/>
			<point x="203" y="-136" type="line"/>
			<point x="203" y="0" type="line"/>
			<point x="252" y="0" type="line"/>
			<point x="252" y="123" type="line"/>
			<point x="47" y="123" type="line"/>
		</contour>
	</outline>
	<anchor name="_bottomright" x="243" y="0"/>
</glyph>
<glyph name="one.lf" format="2">
	<advance width="493"/>
	<outline>
		<contour>
			<point x="183" y="131" type="line"/>
			<point x="356" y="131" type="line"/>
			<point x="356" y="694" type="line"/>
			<point x="253" y="694" type="line"/>
			<point x="14" y="556" type="line"/>
			<point x="79" y="432" type="line"/>
			<point x="237" y="514" type="line"/>
			<point x="183" y="569" type="line"/>
		</contour>
		<contour>
			<point x="49" y="0" type="line"/>
			<point x="479" y="0" type="line"/>
			<point x="479" y="148" type="line"/>
			<point x="49" y="148" type="line"/>
		</contour>
	</outline>
</glyph>
<glyph name="tonos.comb" format="2">
	<advance width="337"/>
	<outline>
		<contour>
			<point x="206" y="553" type="line"/>
			<point x="295" y="739" type="line"/>
			<point x="125" y="739" type="line"/>
			<point x="90" y="553" type="line"/>
		</contour>
	</outline>
	<anchor name="_top" x="151" y="490"/>
</glyph>
